<?xml version="1.0" encoding="UTF-8" standalone="no"?>
<svg
   xmlns:dc="http://purl.org/dc/elements/1.1/"
   xmlns:cc="http://creativecommons.org/ns#"
   xmlns:rdf="http://www.w3.org/1999/02/22-rdf-syntax-ns#"
   xmlns:svg="http://www.w3.org/2000/svg"
   xmlns="http://www.w3.org/2000/svg"
   xmlns:sodipodi="http://sodipodi.sourceforge.net/DTD/sodipodi-0.dtd"
   xmlns:inkscape="http://www.inkscape.org/namespaces/inkscape"
   role="img"
   viewBox="0 0 24 24"
   version="1.1"
   id="svg6"
   sodipodi:docname="logo.svg"
   inkscape:version="1.0 (4035a4fb49, 2020-05-01)">
  <metadata
     id="metadata12">
    <rdf:RDF>
      <cc:Work
         rdf:about="">
        <dc:format>image/svg+xml</dc:format>
        <dc:type
           rdf:resource="http://purl.org/dc/dcmitype/StillImage" />
      </cc:Work>
    </rdf:RDF>
  </metadata>
  <defs
     id="defs10" />
  <sodipodi:namedview
     inkscape:document-rotation="0"
     pagecolor="#ffffff"
     bordercolor="#666666"
     borderopacity="1"
     objecttolerance="10"
     gridtolerance="10"
     guidetolerance="10"
     inkscape:pageopacity="0"
     inkscape:pageshadow="2"
     inkscape:window-width="1918"
     inkscape:window-height="2054"
     id="namedview8"
     showgrid="false"
     inkscape:zoom="30.625"
     inkscape:cx="18.905803"
     inkscape:cy="14.255752"
     inkscape:window-x="0"
     inkscape:window-y="0"
     inkscape:window-maximized="0"
     inkscape:current-layer="svg6" />
  <title
     id="title2">Git icon</title>
  <path
     d="M 16.927573,8.4537197 9.6992353,1.226072 c -0.416635,-0.41594497 -1.091252,-0.41594497 -1.509266,0 L 6.692429,2.7263711 8.5962573,4.6301989 c 0.444916,-0.1483054 0.951224,-0.048286 1.303018,0.3041986 0.3559327,0.3552432 0.4538827,0.8677592 0.3021287,1.3106061 l 1.833469,1.8348481 c 0.444916,-0.153823 0.956743,-0.0538 1.310606,0.30006 0.497341,0.496651 0.497341,1.29957 0,1.7962203 -0.495961,0.495961 -1.2975,0.495961 -1.793461,0 C 11.18022,9.8029547 11.087098,9.2538797 11.273342,8.7993057 L 9.5564483,7.0913792 v 4.5008978 c 0.121403,0.05932 0.235909,0.140028 0.336619,0.240048 0.4918217,0.49734 0.4918217,1.298879 0,1.793461 -0.495961,0.49734 -1.303019,0.49734 -1.799669,0 -0.495961,-0.495961 -0.495961,-1.296121 0,-1.792082 0.125542,-0.124162 0.266949,-0.217974 0.417324,-0.280056 V 7.0086041 C 8.3610373,6.9458329 8.2182503,6.8554701 8.0968473,6.7319972 7.7209103,6.3560602 7.6305473,5.8062954 7.8236893,5.3462037 L 5.9529712,3.4665186 0.99612101,8.4199197 c -0.4138756,0.417325 -0.4138756,1.092632 0,1.509956 L 8.2251483,17.156834 c 0.416635,0.416635 1.091252,0.416635 1.507887,0 L 16.927573,9.9622967 c 0.417324,-0.415945 0.417324,-1.091252 0,-1.508577"
     id="path4"
     style="stroke-width:0.689793;fill:#ff2a2a" />
  <g
     transform="matrix(0.91413732,0,0,0.91413732,1.3871351,1.3903214)"
     style="font-size:29.328px;line-height:1.25;font-family:sans-serif;word-spacing:0px;stroke:none;stroke-width:0.733199"
     id="text847"
     aria-label="+">
    <g
       style="opacity:1;stroke:none"
       id="g863">
      <path
         id="path865"
         d="M 23.014716,17.259783 H 17.386833 V 23.10247 H 14.92374 V 17.259783 H 9.295857 V 15.083096 H 14.92374 V 9.2833692 h 2.463093 v 5.7997268 h 5.627883 z"
         style="color:#000000;font-style:normal;font-variant:normal;font-weight:normal;font-stretch:normal;font-size:29.328px;line-height:1.25;font-family:Consolas;-inkscape-font-specification:'Consolas, Normal';font-variant-ligatures:normal;font-variant-position:normal;font-variant-caps:normal;font-variant-numeric:normal;font-variant-alternates:normal;font-variant-east-asian:normal;font-feature-settings:normal;font-variation-settings:normal;text-indent:0;text-align:start;text-decoration:none;text-decoration-line:none;text-decoration-style:solid;text-decoration-color:#000000;letter-spacing:normal;word-spacing:0px;text-transform:none;writing-mode:lr-tb;direction:ltr;text-orientation:mixed;dominant-baseline:auto;baseline-shift:baseline;text-anchor:start;white-space:normal;shape-padding:0;shape-margin:0;inline-size:0;clip-rule:nonzero;display:inline;overflow:visible;visibility:visible;isolation:auto;mix-blend-mode:normal;color-interpolation:sRGB;color-interpolation-filters:linearRGB;solid-color:#000000;solid-opacity:1;vector-effect:none;fill:#000000;fill-opacity:1;fill-rule:nonzero;stroke:none;stroke-width:0.733199;stroke-linecap:butt;stroke-linejoin:miter;stroke-miterlimit:4;stroke-dasharray:none;stroke-dashoffset:0;stroke-opacity:1;color-rendering:auto;image-rendering:auto;shape-rendering:auto;text-rendering:auto;enable-background:accumulate;stop-color:#000000;stop-opacity:1" />
      <path
         id="path867"
         d="M 14.556641,8.9160156 V 14.716797 H 8.9296875 v 2.910156 h 5.6269535 v 5.841797 h 3.197265 v -5.841797 h 5.626953 V 17.259766 14.716797 H 17.753906 V 8.9160156 Z m 0.734375,0.734375 h 1.728515 v 5.7988284 h 5.628907 v 1.443359 h -5.628907 v 5.84375 h -1.728515 v -5.84375 H 9.6621094 v -1.443359 h 5.6289066 z"
         style="color:#000000;font-style:normal;font-variant:normal;font-weight:normal;font-stretch:normal;font-size:29.328px;line-height:1.25;font-family:Consolas;-inkscape-font-specification:'Consolas, Normal';font-variant-ligatures:normal;font-variant-position:normal;font-variant-caps:normal;font-variant-numeric:normal;font-variant-alternates:normal;font-variant-east-asian:normal;font-feature-settings:normal;font-variation-settings:normal;text-indent:0;text-align:start;text-decoration:none;text-decoration-line:none;text-decoration-style:solid;text-decoration-color:#000000;letter-spacing:normal;word-spacing:0px;text-transform:none;writing-mode:lr-tb;direction:ltr;text-orientation:mixed;dominant-baseline:auto;baseline-shift:baseline;text-anchor:start;white-space:normal;shape-padding:0;shape-margin:0;inline-size:0;clip-rule:nonzero;display:inline;overflow:visible;visibility:visible;isolation:auto;mix-blend-mode:normal;color-interpolation:sRGB;color-interpolation-filters:linearRGB;solid-color:#000000;solid-opacity:1;vector-effect:none;fill-opacity:1;fill-rule:nonzero;stroke:none;stroke-width:0.733199;stroke-linecap:butt;stroke-linejoin:miter;stroke-miterlimit:4;stroke-dasharray:none;stroke-dashoffset:0;stroke-opacity:1;color-rendering:auto;image-rendering:auto;shape-rendering:auto;text-rendering:auto;enable-background:accumulate;stop-color:#000000;stop-opacity:1" />
    </g>
  </g>
  <g
     transform="matrix(0.88354078,0,0,0.88354078,2.3578442,1.5032792)"
     style="font-style:normal;font-variant:normal;font-weight:normal;font-stretch:normal;font-size:5.27233px;line-height:1.25;font-family:'Gill Sans MT Condensed';-inkscape-font-specification:'Gill Sans MT Condensed, Normal';font-variant-ligatures:normal;font-variant-caps:normal;font-variant-numeric:normal;font-variant-east-asian:normal;word-spacing:0px;fill:#ff2a2a;stroke-width:0.131808"
     id="text843"
     aria-label="GUI">
    <g
       style="opacity:1"
       id="g842">
      <path
         id="path844"
         d="m 19.570232,12.777805 v 1.729983 c -0.212815,0.139017 -0.420482,0.208525 -0.623,0.208525 -0.356981,0 -0.639304,-0.158753 -0.846971,-0.47626 -0.207667,-0.317507 -0.3115,-0.759442 -0.3115,-1.325806 0,-0.557782 0.100401,-0.998859 0.301203,-1.323231 0.200801,-0.326088 0.469395,-0.489132 0.805781,-0.489132 0.202518,0 0.427347,0.0841 0.674487,0.252289 v 0.483984 c -0.252289,-0.228262 -0.470253,-0.342393 -0.653892,-0.342393 -0.449659,0 -0.674488,0.472828 -0.674488,1.418483 0,0.921628 0.238559,1.382442 0.715678,1.382442 0.03947,0 0.09268,-0.006 0.159611,-0.01802 v -1.078666 h -0.3115 v -0.422198 z"
         style="color:#000000;font-style:normal;font-variant:normal;font-weight:normal;font-stretch:normal;font-size:5.27233px;line-height:1.25;font-family:'Gill Sans MT Condensed';-inkscape-font-specification:'Gill Sans MT Condensed, Normal';font-variant-ligatures:normal;font-variant-position:normal;font-variant-caps:normal;font-variant-numeric:normal;font-variant-alternates:normal;font-variant-east-asian:normal;font-feature-settings:normal;font-variation-settings:normal;text-indent:0;text-align:start;text-decoration:none;text-decoration-line:none;text-decoration-style:solid;text-decoration-color:#000000;letter-spacing:normal;word-spacing:0px;text-transform:none;writing-mode:lr-tb;direction:ltr;text-orientation:mixed;dominant-baseline:auto;baseline-shift:baseline;text-anchor:start;white-space:normal;shape-padding:0;shape-margin:0;inline-size:0;clip-rule:nonzero;display:inline;overflow:visible;visibility:visible;isolation:auto;mix-blend-mode:normal;color-interpolation:sRGB;color-interpolation-filters:linearRGB;solid-color:#000000;solid-opacity:1;vector-effect:none;fill:#ff2a2a;fill-opacity:1;fill-rule:nonzero;stroke:none;stroke-width:0.131808;stroke-linecap:butt;stroke-linejoin:miter;stroke-miterlimit:4;stroke-dasharray:none;stroke-dashoffset:0;stroke-opacity:1;color-rendering:auto;image-rendering:auto;shape-rendering:auto;text-rendering:auto;enable-background:accumulate;stop-color:#000000;stop-opacity:1" />
      <path
         id="path846"
         d="m 18.896484,11.035156 c -0.357681,0 -0.653864,0.181405 -0.863281,0.521485 -0.209701,0.338746 -0.310547,0.791731 -0.310547,1.357421 0,0.574419 0.104773,1.028799 0.322266,1.361329 0.217135,0.331984 0.525824,0.505859 0.902344,0.505859 0.217597,0 0.437374,-0.0745 0.658203,-0.21875 l 0.03125,-0.01953 v -1.832031 h -0.06641 -0.830078 v 0.554687 h 0.310547 v 0.953125 c -0.03398,0.0045 -0.07303,0.01172 -0.09375,0.01172 -0.217342,0 -0.367482,-0.09607 -0.478515,-0.310547 -0.111033,-0.214477 -0.169922,-0.550732 -0.169922,-1.00586 0,-0.467604 0.05701,-0.81413 0.162109,-1.035156 0.105098,-0.221026 0.243583,-0.316406 0.445313,-0.316406 0.156332,0 0.362984,0.101294 0.609375,0.324219 l 0.111328,0.09961 v -0.667969 l -0.0293,-0.01953 C 19.35336,11.125925 19.117247,11.035156 18.896484,11.035156 Z m 0,0.132813 c 0.175731,0 0.380757,0.08021 0.607422,0.228515 v 0.335938 c -0.209596,-0.167297 -0.410461,-0.302735 -0.58789,-0.302734 -0.24793,0 -0.444722,0.140776 -0.564454,0.392578 -0.119731,0.251801 -0.175781,0.613746 -0.175781,1.091796 0,0.466501 0.05802,0.82007 0.185547,1.066407 0.127527,0.246337 0.335927,0.382812 0.595703,0.382812 0.04616,0 0.102724,-0.0071 0.171875,-0.01953 l 0.05469,-0.0098 v -1.199218 h -0.3125 V 12.84375 h 0.632812 v 1.619141 c -0.19299,0.119758 -0.379096,0.1875 -0.55664,0.1875 -0.337442,0 -0.592818,-0.144237 -0.791016,-0.447266 -0.197841,-0.302484 -0.300781,-0.730753 -0.300781,-1.289063 0,-0.549873 0.09911,-0.979065 0.291015,-1.289062 0.192186,-0.312097 0.43491,-0.457031 0.75,-0.457031 z"
         style="color:#000000;font-style:normal;font-variant:normal;font-weight:normal;font-stretch:normal;font-size:5.27233px;line-height:1.25;font-family:'Gill Sans MT Condensed';-inkscape-font-specification:'Gill Sans MT Condensed, Normal';font-variant-ligatures:normal;font-variant-position:normal;font-variant-caps:normal;font-variant-numeric:normal;font-variant-alternates:normal;font-variant-east-asian:normal;font-feature-settings:normal;font-variation-settings:normal;text-indent:0;text-align:start;text-decoration:none;text-decoration-line:none;text-decoration-style:solid;text-decoration-color:#000000;letter-spacing:normal;word-spacing:0px;text-transform:none;writing-mode:lr-tb;direction:ltr;text-orientation:mixed;dominant-baseline:auto;baseline-shift:baseline;text-anchor:start;white-space:normal;shape-padding:0;shape-margin:0;inline-size:0;clip-rule:nonzero;display:inline;overflow:visible;visibility:visible;isolation:auto;mix-blend-mode:normal;color-interpolation:sRGB;color-interpolation-filters:linearRGB;solid-color:#000000;solid-opacity:1;vector-effect:none;fill-opacity:1;fill-rule:nonzero;stroke:none;stroke-width:0.131808;stroke-linecap:butt;stroke-linejoin:miter;stroke-miterlimit:4;stroke-dasharray:none;stroke-dashoffset:0;stroke-opacity:1;color-rendering:auto;image-rendering:auto;shape-rendering:auto;text-rendering:auto;enable-background:accumulate;stop-color:#000000;stop-opacity:1" />
    </g>
    <g
       style="opacity:1"
       id="g848">
      <path
         id="path850"
         d="m 20.09798,11.148223 h 0.453091 v 2.646462 c 0,0.334669 0.110698,0.502004 0.332095,0.502004 0.09783,0 0.177632,-0.04205 0.239417,-0.126144 0.06179,-0.0841 0.09268,-0.202518 0.09268,-0.355265 v -2.667057 h 0.453091 v 2.61557 c 0,0.308925 -0.07809,0.54491 -0.234269,0.707954 -0.156179,0.163044 -0.339818,0.244566 -0.550917,0.244566 -0.224829,0 -0.411901,-0.08495 -0.561215,-0.254863 -0.149314,-0.169909 -0.223971,-0.390448 -0.223971,-0.661616 z"
         style="color:#000000;font-style:normal;font-variant:normal;font-weight:normal;font-stretch:normal;font-size:5.27233px;line-height:1.25;font-family:'Gill Sans MT Condensed';-inkscape-font-specification:'Gill Sans MT Condensed, Normal';font-variant-ligatures:normal;font-variant-position:normal;font-variant-caps:normal;font-variant-numeric:normal;font-variant-alternates:normal;font-variant-east-asian:normal;font-feature-settings:normal;font-variation-settings:normal;text-indent:0;text-align:start;text-decoration:none;text-decoration-line:none;text-decoration-style:solid;text-decoration-color:#000000;letter-spacing:normal;word-spacing:0px;text-transform:none;writing-mode:lr-tb;direction:ltr;text-orientation:mixed;dominant-baseline:auto;baseline-shift:baseline;text-anchor:start;white-space:normal;shape-padding:0;shape-margin:0;inline-size:0;clip-rule:nonzero;display:inline;overflow:visible;visibility:visible;isolation:auto;mix-blend-mode:normal;color-interpolation:sRGB;color-interpolation-filters:linearRGB;solid-color:#000000;solid-opacity:1;vector-effect:none;fill:#ff2a2a;fill-opacity:1;fill-rule:nonzero;stroke:none;stroke-width:0.131808;stroke-linecap:butt;stroke-linejoin:miter;stroke-miterlimit:4;stroke-dasharray:none;stroke-dashoffset:0;stroke-opacity:1;color-rendering:auto;image-rendering:auto;shape-rendering:auto;text-rendering:auto;enable-background:accumulate;stop-color:#000000;stop-opacity:1" />
      <path
         id="path852"
         d="m 20.03125,11.082031 v 0.06641 2.652343 c 0,0.283265 0.07944,0.52211 0.240234,0.705078 0.160142,0.18223 0.369897,0.275391 0.611328,0.275391 0.228067,0 0.433171,-0.08992 0.59961,-0.263672 0.170562,-0.178059 0.251953,-0.433875 0.251953,-0.753906 v -2.681641 h -0.585937 v 2.732422 c 0,0.143861 -0.02761,0.247652 -0.07813,0.316406 -0.05196,0.07072 -0.108557,0.09961 -0.1875,0.09961 -0.09409,0 -0.149164,-0.0289 -0.193359,-0.0957 -0.04419,-0.06681 -0.07227,-0.179776 -0.07227,-0.339844 v -2.712891 z m 0.132812,0.132813 h 0.320313 v 2.580078 c 0,0.174601 0.0292,0.31158 0.0957,0.412109 0.0665,0.100529 0.175432,0.15625 0.302734,0.15625 0.116712,0 0.221358,-0.05683 0.292969,-0.154297 0.07306,-0.09944 0.105469,-0.232898 0.105469,-0.394531 v -2.599609 h 0.320312 v 2.548828 c 0,0.297819 -0.07305,0.51408 -0.214843,0.662109 -0.145918,0.152333 -0.309774,0.22461 -0.503907,0.22461 -0.208227,0 -0.373231,-0.07483 -0.511718,-0.232422 -0.137838,-0.156851 -0.207032,-0.358116 -0.207032,-0.617188 z"
         style="color:#000000;font-style:normal;font-variant:normal;font-weight:normal;font-stretch:normal;font-size:5.27233px;line-height:1.25;font-family:'Gill Sans MT Condensed';-inkscape-font-specification:'Gill Sans MT Condensed, Normal';font-variant-ligatures:normal;font-variant-position:normal;font-variant-caps:normal;font-variant-numeric:normal;font-variant-alternates:normal;font-variant-east-asian:normal;font-feature-settings:normal;font-variation-settings:normal;text-indent:0;text-align:start;text-decoration:none;text-decoration-line:none;text-decoration-style:solid;text-decoration-color:#000000;letter-spacing:normal;word-spacing:0px;text-transform:none;writing-mode:lr-tb;direction:ltr;text-orientation:mixed;dominant-baseline:auto;baseline-shift:baseline;text-anchor:start;white-space:normal;shape-padding:0;shape-margin:0;inline-size:0;clip-rule:nonzero;display:inline;overflow:visible;visibility:visible;isolation:auto;mix-blend-mode:normal;color-interpolation:sRGB;color-interpolation-filters:linearRGB;solid-color:#000000;solid-opacity:1;vector-effect:none;fill-opacity:1;fill-rule:nonzero;stroke:none;stroke-width:0.131808;stroke-linecap:butt;stroke-linejoin:miter;stroke-miterlimit:4;stroke-dasharray:none;stroke-dashoffset:0;stroke-opacity:1;color-rendering:auto;image-rendering:auto;shape-rendering:auto;text-rendering:auto;enable-background:accumulate;stop-color:#000000;stop-opacity:1" />
    </g>
    <g
       style="opacity:1"
       id="g854">
      <path
         id="path856"
         d="m 22.250162,14.669974 v -3.521751 h 0.453091 v 3.521751 z"
         style="color:#000000;font-style:normal;font-variant:normal;font-weight:normal;font-stretch:normal;font-size:5.27233px;line-height:1.25;font-family:'Gill Sans MT Condensed';-inkscape-font-specification:'Gill Sans MT Condensed, Normal';font-variant-ligatures:normal;font-variant-position:normal;font-variant-caps:normal;font-variant-numeric:normal;font-variant-alternates:normal;font-variant-east-asian:normal;font-feature-settings:normal;font-variation-settings:normal;text-indent:0;text-align:start;text-decoration:none;text-decoration-line:none;text-decoration-style:solid;text-decoration-color:#000000;letter-spacing:normal;word-spacing:0px;text-transform:none;writing-mode:lr-tb;direction:ltr;text-orientation:mixed;dominant-baseline:auto;baseline-shift:baseline;text-anchor:start;white-space:normal;shape-padding:0;shape-margin:0;inline-size:0;clip-rule:nonzero;display:inline;overflow:visible;visibility:visible;isolation:auto;mix-blend-mode:normal;color-interpolation:sRGB;color-interpolation-filters:linearRGB;solid-color:#000000;solid-opacity:1;vector-effect:none;fill:#ff2a2a;fill-opacity:1;fill-rule:nonzero;stroke:none;stroke-width:0.131808;stroke-linecap:butt;stroke-linejoin:miter;stroke-miterlimit:4;stroke-dasharray:none;stroke-dashoffset:0;stroke-opacity:1;color-rendering:auto;image-rendering:auto;shape-rendering:auto;text-rendering:auto;enable-background:accumulate;stop-color:#000000;stop-opacity:1" />
      <path
         id="path858"
         d="m 22.183594,11.082031 v 3.654297 H 22.25 22.769531 v -3.654297 z m 0.132812,0.132813 h 0.320313 v 3.388672 h -0.320313 z"
         style="color:#000000;font-style:normal;font-variant:normal;font-weight:normal;font-stretch:normal;font-size:5.27233px;line-height:1.25;font-family:'Gill Sans MT Condensed';-inkscape-font-specification:'Gill Sans MT Condensed, Normal';font-variant-ligatures:normal;font-variant-position:normal;font-variant-caps:normal;font-variant-numeric:normal;font-variant-alternates:normal;font-variant-east-asian:normal;font-feature-settings:normal;font-variation-settings:normal;text-indent:0;text-align:start;text-decoration:none;text-decoration-line:none;text-decoration-style:solid;text-decoration-color:#000000;letter-spacing:normal;word-spacing:0px;text-transform:none;writing-mode:lr-tb;direction:ltr;text-orientation:mixed;dominant-baseline:auto;baseline-shift:baseline;text-anchor:start;white-space:normal;shape-padding:0;shape-margin:0;inline-size:0;clip-rule:nonzero;display:inline;overflow:visible;visibility:visible;isolation:auto;mix-blend-mode:normal;color-interpolation:sRGB;color-interpolation-filters:linearRGB;solid-color:#000000;solid-opacity:1;vector-effect:none;fill-opacity:1;fill-rule:nonzero;stroke:none;stroke-width:0.131808;stroke-linecap:butt;stroke-linejoin:miter;stroke-miterlimit:4;stroke-dasharray:none;stroke-dashoffset:0;stroke-opacity:1;color-rendering:auto;image-rendering:auto;shape-rendering:auto;text-rendering:auto;enable-background:accumulate;stop-color:#000000;stop-opacity:1" />
    </g>
  </g>
</svg>
